# xmcd CD database file
#
# Track frame offsets:
#	150
#	12520
#	24202
#	41870
#	54416
#	68371
#	83347
#	98317
#	114549
#	131607
#	143059
#	156839
#	172156
#	193076
#	203438
#	217589
#	228837
#	243609
#	257196
#	275352
#
# Disc length: 3848 seconds
#
# Revision: 0
# Processed by: cddbd v1.5.2PL0 Copyright (c) Steve Scherf et al.
# Submitted via: CDex 1.72
#
DISCID=010f0614
DTITLE=rainville, Morris P [CDN-09-Gome Good Old Country Blues-cty) - Some Good Old Country Blues
DYEAR=2009
DGENRE=Country
TTITLE0=Good Old Country Blues
TTITLE1=Little Birdie
TTITLE2=The Mississauga Man
TTITLE3=Listen Children
TTITLE4=Wannabe Cowboy
TTITLE5=Dream Catcher
TTITLE6=She Wanted To Be The Last
TTITLE7=Always Hum A Song In Your Soul
TTITLE8=Would'A Been Here Much Sooner
TTITLE9=She Wouldn't Listen
TTITLE10=In My Soul
TTITLE11=Radio Needs David Allan Coe
TTITLE12=Waiting For Another Tear To Fall
TTITLE13=The Popcorn Was Popping
TTITLE14=Thank You Jesus
TTITLE15=Looser, liar And Lonely
TTITLE16=Wayfairing Stranger
TTITLE17=You Can Depend On Me
TTITLE18=After She Is Gone
TTITLE19=No Crying When I Die
EXTD=YEAR: 2009
EXTT0=
EXTT1=
EXTT2=
EXTT3=
EXTT4=
EXTT5=
EXTT6=
EXTT7=
EXTT8=
EXTT9=
EXTT10=
EXTT11=
EXTT12=
EXTT13=
EXTT14=
EXTT15=
EXTT16=
EXTT17=
EXTT18=
EXTT19=
PLAYORDER=
